# xmcd
# 
# Track frame offsets:
#	150
#	16128
#	34725
#	51228
#	65408
#	82365
#	95320
#	110515
#	124155
#	139805
#	153808
#	175455
#	187825
#	203163
#	218083
#	231225
#
# Disc length: 3371 seconds
#
# Revision: 1
# Processed by: cddbd v1.4PL0 Copyright (c) Steve Scherf et al.
# Submitted via: Audio-CD-Archiv 2.10.441
#
DISCID=dc0d2910
DTITLE=Various Artist - Countrytime in Germany CD 2
DYEAR=1900
DGENRE=country
TTITLE0=Truck Stop - Ich möcht so gern Dave Dudley hör´n
TTITLE1=Dagmar - Gelbe Rosen
TTITLE2=Three In - Trau dich, bleib bei mir
TTITLE3=Hanna and Daana - It´s Countrytime in Germany
TTITLE4=Abi Hoffmann - Ich weiß was es heißt
TTITLE5=Mike Herman and Booze Company - Verliebt in Country
TTITLE6=Tex Haper - Geld ist etwas Wunderbares
TTITLE7=Nashville Music Company - Engel in der Nacht
TTITLE8=Jonny Hill - Pack doch deinen Koffer wieder aus
TTITLE9=Black Bottom Skiffel Group - Host den du mein Briaf net griagt
TTITLE10=Larry Schuba and Western Union - L.I.E.B.E.
TTITLE11=Roxy Rose - Gib nicht auf stolzer Wolf
TTITLE12=Frank Baum and Country Green - Trucker du und ich
TTITLE13=Anne Karin - Du fehlst mir
TTITLE14=Nashville Music Company - Vergib mir, daß ich dich Liebe
TTITLE15=Jonny Hill - Ruf Teddybär Eins- Vier
EXTD=
EXTT0=
EXTT1=
EXTT2=
EXTT3=
EXTT4=
EXTT5=
EXTT6=
EXTT7=
EXTT8=
EXTT9=
EXTT10=
EXTT11=
EXTT12=
EXTT13=
EXTT14=
EXTT15=
PLAYORDER=
